<svg xmlns="http://www.w3.org/2000/svg" viewBox="0 0 192 192" width="192" height="192">
  <defs>
    <linearGradient id="brandGrad192" x1="0%" y1="0%" x2="100%" y2="100%">
      <stop offset="0%" stop-color="#059669" />
      <stop offset="50%" stop-color="#10b981" />
      <stop offset="100%" stop-color="#14b8a6" />
    </linearGradient>
    <linearGradient id="leafGrad192" x1="0%" y1="0%" x2="100%" y2="100%">
      <stop offset="0%" stop-color="#ffffff" />
      <stop offset="100%" stop-color="#ecfdf5" />
    </linearGradient>
  </defs>

  <rect width="192" height="192" rx="48" fill="url(#brandGrad192)" />
  <circle cx="96" cy="96" r="68" fill="none" stroke="rgba(255, 255, 255, 0.15)" stroke-width="3" />

  <g transform="translate(40, 40) scale(4.66)">
    <path 
      d="M11 20A7 7 0 0 1 9.8 6.1C15.5 5 17 4.48 19 2c1 2 2 4.18 2 8 0 5.5-4.78 10-10 10Z" 
      fill="none" 
      stroke="url(#leafGrad192)" 
      stroke-width="2.2" 
      stroke-linecap="round" 
      stroke-linejoin="round" 
    />
    <path 
      d="M2 21c0-3 1.85-5.36 5.08-6C9.5 14.52 12 13 13 12" 
      fill="none" 
      stroke="url(#leafGrad192)" 
      stroke-width="2.2" 
      stroke-linecap="round" 
      stroke-linejoin="round" 
    />
  </g>
</svg>
